<svg width="16" height="16" viewBox="0 0 16 16" fill="none" xmlns="http://www.w3.org/2000/svg">
<path d="M10.36 7.52667L6.5867 3.76C6.52472 3.69752 6.45099 3.64792 6.36975 3.61408C6.28851 3.58023 6.20137 3.56281 6.11336 3.56281C6.02535 3.56281 5.93822 3.58023 5.85698 3.61408C5.77574 3.64792 5.702 3.69752 5.64003 3.76C5.51586 3.88491 5.44617 4.05388 5.44617 4.23C5.44617 4.40613 5.51586 4.5751 5.64003 4.7L8.94003 8.03334L5.64003 11.3333C5.51586 11.4582 5.44617 11.6272 5.44617 11.8033C5.44617 11.9795 5.51586 12.1484 5.64003 12.2733C5.70177 12.3363 5.7754 12.3864 5.85665 12.4208C5.9379 12.4551 6.02516 12.473 6.11336 12.4733C6.20157 12.473 6.28882 12.4551 6.37007 12.4208C6.45132 12.3864 6.52495 12.3363 6.5867 12.2733L10.36 8.50667C10.4277 8.44424 10.4817 8.36847 10.5186 8.28414C10.5556 8.19981 10.5747 8.10874 10.5747 8.01667C10.5747 7.9246 10.5556 7.83353 10.5186 7.7492C10.4817 7.66487 10.4277 7.5891 10.36 7.52667Z" fill="#979797"/>
</svg>
