<svg width="20" height="21" viewBox="0 0 20 21" fill="none" xmlns="http://www.w3.org/2000/svg">
<path fill-rule="evenodd" clip-rule="evenodd" d="M9.4587 0.0318824C8.49451 0.146579 7.58708 0.552688 6.88486 1.18369C6.55132 1.48345 1.12267 6.94054 1.00318 7.09616C-0.398463 8.92235 -0.324098 11.4432 1.1809 13.1179C1.48065 13.4515 6.93774 18.8801 7.09337 18.9996C8.91956 20.4013 11.4404 20.3269 13.1151 18.8219C13.4487 18.5221 18.8773 13.0651 18.9968 12.9094C20.3985 11.0832 20.3241 8.56242 18.8191 6.88766C18.5193 6.55412 13.0623 1.12547 12.9066 1.00597C11.9035 0.236036 10.6705 -0.1123 9.4587 0.0318824ZM10.2447 6.72569C13.0481 6.95608 14.3039 10.3416 12.3214 12.3242C10.3253 14.3202 6.93834 13.0437 6.72189 10.2138C6.57191 8.25287 8.27751 6.56396 10.2447 6.72569Z" fill="white"/>
</svg>
