<svg width="20" height="20" viewBox="0 0 20 20" fill="none" xmlns="http://www.w3.org/2000/svg">
<path id="Instagram" fill-rule="evenodd" clip-rule="evenodd" d="M10 0C7.28416 0 6.94362 0.0115116 5.87701 0.0601777C4.81263 0.108725 4.08569 0.277786 3.44962 0.525007C2.79203 0.780524 2.23436 1.12246 1.67839 1.67839C1.12246 2.23436 0.780524 2.79203 0.525007 3.44962C0.277786 4.08569 0.108725 4.81263 0.0601778 5.87701C0.0115118 6.94362 0 7.28416 0 10C0 12.7158 0.0115118 13.0564 0.0601778 14.123C0.108725 15.1874 0.277786 15.9143 0.525007 16.5504C0.780524 17.208 1.12246 17.7656 1.67839 18.3216C2.23436 18.8775 2.79203 19.2195 3.44962 19.475C4.08569 19.7222 4.81263 19.8913 5.87701 19.9398C6.94362 19.9885 7.28416 20 10 20C12.7158 20 13.0564 19.9885 14.123 19.9398C15.1874 19.8913 15.9143 19.7222 16.5504 19.475C17.208 19.2195 17.7656 18.8775 18.3216 18.3216C18.8775 17.7656 19.2195 17.208 19.475 16.5504C19.7222 15.9143 19.8913 15.1874 19.9398 14.123C19.9885 13.0564 20 12.7158 20 10C20 7.28416 19.9885 6.94362 19.9398 5.87701C19.8913 4.81263 19.7222 4.08569 19.475 3.44962C19.2195 2.79203 18.8775 2.23436 18.3216 1.67839C17.7656 1.12246 17.208 0.780524 16.5504 0.525007C15.9143 0.277786 15.1874 0.108725 14.123 0.0601777C13.0564 0.0115116 12.7158 0 10 0ZM10 1.80179C12.6701 1.80179 12.9864 1.81199 14.0409 1.8601C15.0159 1.90456 15.5454 2.06747 15.8977 2.20441C16.3645 2.38582 16.6976 2.60252 17.0475 2.95247C17.3975 3.30238 17.6142 3.6355 17.7956 4.10227C17.9325 4.45465 18.0955 4.98414 18.1399 5.95913C18.188 7.01359 18.1982 7.32988 18.1982 10C18.1982 12.6701 18.188 12.9864 18.1399 14.0408C18.0955 15.0158 17.9325 15.5453 17.7956 15.8977C17.6142 16.3645 17.3975 16.6976 17.0475 17.0475C16.6976 17.3975 16.3645 17.6142 15.8977 17.7956C15.5454 17.9325 15.0159 18.0954 14.0409 18.1399C12.9866 18.188 12.6703 18.1982 10 18.1982C7.32971 18.1982 7.0135 18.188 5.95916 18.1399C4.98417 18.0954 4.45468 17.9325 4.10231 17.7956C3.63553 17.6142 3.30241 17.3975 2.9525 17.0475C2.60259 16.6976 2.38585 16.3645 2.20445 15.8977C2.0675 15.5453 1.90459 15.0158 1.86013 14.0408C1.81202 12.9864 1.80182 12.6701 1.80182 10C1.80182 7.32988 1.81202 7.01359 1.86013 5.95913C1.90459 4.98414 2.0675 4.45465 2.20445 4.10227C2.38585 3.6355 2.60255 3.30238 2.9525 2.95247C3.30241 2.60252 3.63553 2.38582 4.10231 2.20441C4.45468 2.06747 4.98417 1.90456 5.95916 1.8601C7.01362 1.81199 7.32991 1.80179 10 1.80179ZM4.86487 10C4.86487 7.16392 7.16393 4.86486 10 4.86486C12.8361 4.86486 15.1351 7.16392 15.1351 10C15.1351 12.8361 12.8361 15.1351 10 15.1351C7.16393 15.1351 4.86487 12.8361 4.86487 10ZM10 13.3333C8.15906 13.3333 6.66669 11.841 6.66669 10C6.66669 8.15904 8.15906 6.66666 10 6.66666C11.841 6.66666 13.3334 8.15904 13.3334 10C13.3334 11.841 11.841 13.3333 10 13.3333ZM15.338 5.86197C16.0008 5.86197 16.5381 5.32474 16.5381 4.66199C16.5381 3.99924 16.0008 3.46197 15.338 3.46197C14.6753 3.46197 14.1381 3.99924 14.1381 4.66199C14.1381 5.32474 14.6753 5.86197 15.338 5.86197Z" fill="white"/>
</svg>
