<svg width="18" height="16" viewBox="0 0 18 16" fill="none" xmlns="http://www.w3.org/2000/svg">
<path id="LinkedIn" fill-rule="evenodd" clip-rule="evenodd" d="M17.6 16H13.7102V10.3754C13.7102 8.90312 13.1017 7.89806 11.7637 7.89806C10.7403 7.89806 10.1711 8.5763 9.9062 9.22994C9.80686 9.46456 9.82238 9.79138 9.82238 10.1182V16H5.96876C5.96876 16 6.01843 6.0365 5.96876 5.13082H9.82238V6.83665C10.05 6.0908 11.2815 5.02632 13.2466 5.02632C15.6846 5.02632 17.6 6.58974 17.6 9.95633V16ZM2.07168 3.77127H2.04685C0.80508 3.77127 0 2.94039 0 1.88717C0 0.813472 0.828881 0 2.09548 0C3.36105 0 4.13923 0.811423 4.16406 1.8841C4.16406 2.93731 3.36105 3.77127 2.07168 3.77127ZM0.443932 5.13082H3.87432V16H0.443932V5.13082Z" fill="white"/>
</svg>
