<svg width="20" height="16" viewBox="0 0 20 16" fill="none" xmlns="http://www.w3.org/2000/svg">
<path id="Twitter" fill-rule="evenodd" clip-rule="evenodd" d="M20 1.89411C19.2651 2.21538 18.4739 2.43265 17.6439 2.52972C18.4915 2.03048 19.1419 1.23886 19.4483 0.295847C18.6547 0.758108 17.7778 1.0944 16.841 1.27468C16.0944 0.489996 15.0273 0 13.8463 0C11.5819 0 9.74467 1.8086 9.74467 4.039C9.74467 4.35565 9.77989 4.66305 9.85033 4.9589C6.4401 4.79018 3.41727 3.18382 1.39226 0.737306C1.03892 1.33593 0.837002 2.03048 0.837002 2.7701C0.837002 4.17075 1.56131 5.40729 2.66244 6.13189C1.99096 6.11224 1.35705 5.92849 0.802958 5.62802V5.67772C0.802958 7.63539 2.21753 9.26833 4.09579 9.63814C3.75183 9.7329 3.38909 9.78028 3.01462 9.78028C2.75048 9.78028 2.49222 9.75601 2.24218 9.70863C2.76457 11.3127 4.27892 12.481 6.07501 12.5122C4.67101 13.5962 2.90075 14.2423 0.979046 14.2423C0.648001 14.2423 0.320479 14.2238 0 14.1868C1.81605 15.3309 3.9737 16 6.28984 16C13.8381 16 17.9644 9.84615 17.9644 4.5082C17.9644 4.33254 17.9609 4.15688 17.9539 3.98469C18.7556 3.41495 19.4518 2.70423 20 1.89411Z" fill="white"/>
</svg>
